HIERARCHY
ROOT hip
{
  OFFSET 0 0 0
  CHANNELS 6 Xposition Yposition Zposition Zrotation Yrotation Xrotation
  JOINT abdomen
  {
    OFFSET 0 20.6881 -0.73152
    CHANNELS 3 Zrotation Xrotation Yrotation
    JOINT chest
    {
      OFFSET 0 11.7043 -0.48768
      CHANNELS 3 Zrotation Xrotation Yrotation
      JOINT neck
      {
        OFFSET 0 22.1894 -2.19456
        CHANNELS 3 Zrotation Xrotation Yrotation
        JOINT head
        {
          OFFSET -0.24384 7.07133 1.2192
          CHANNELS 3 Zrotation Xrotation Yrotation
          JOINT leftEye
          {
            OFFSET 4.14528 8.04674 8.04672
            CHANNELS 3 Zrotation Xrotation Yrotation
            End Site
            {
              OFFSET 1 0 0
            }
          }
          JOINT rightEye
          {
            OFFSET -3.6576 8.04674 8.04672
            CHANNELS 3 Zrotation Xrotation Yrotation
            End Site
            {
              OFFSET 1 0 0
            }
          }
        }
      }
      JOINT rCollar
      {
        OFFSET -2.68224 19.2634 -4.8768
        CHANNELS 3 Zrotation Xrotation Yrotation
        JOINT rShldr
        {
          OFFSET -8.77824 -1.95073 1.46304
          CHANNELS 3 Zrotation Xrotation Yrotation
          JOINT rForeArm
          {
            OFFSET -28.1742 -1.7115 0.48768
            CHANNELS 3 Zrotation Xrotation Yrotation
            JOINT rHand
            {
              OFFSET -22.5879 0.773209 7.07136
              CHANNELS 3 Zrotation Xrotation Yrotation
              JOINT rThumb1
              {
                OFFSET -1.2192 -0.487915 3.41376
                CHANNELS 3 Zrotation Xrotation Yrotation
                JOINT rThumb2
                {
                  OFFSET -3.37035 -0.52449 3.41376
                  CHANNELS 3 Zrotation Xrotation Yrotation
                  End Site
                  {
                    OFFSET -1.78271 -1.18214 1.43049
                  }
                }
              }
              JOINT rIndex1
              {
                OFFSET -7.75947 0.938293 5.60832
                CHANNELS 3 Zrotation Xrotation Yrotation
                JOINT rIndex2
                {
                  OFFSET -2.54057 -0.884171 1.56538
                  CHANNELS 3 Zrotation Xrotation Yrotation
                  End Site
                  {
                    OFFSET -1.62519 -0.234802 1.16502
                  }
                }
              }
              JOINT rMid1
              {
                OFFSET -8.24714 1.18213 3.41376
                CHANNELS 3 Zrotation Xrotation Yrotation
                JOINT rMid2
                {
                  OFFSET -3.10165 -0.590103 1.0647
                  CHANNELS 3 Zrotation Xrotation Yrotation
                  End Site
                  {
                    OFFSET -2.48547 -0.328903 0.83742
                  }
                }
              }
              JOINT rRing1
              {
                OFFSET -8.82822 0.546677 1.51678
                CHANNELS 3 Zrotation Xrotation Yrotation
                JOINT rRing2
                {
                  OFFSET -2.60934 -0.819778 -0.0198488
                  CHANNELS 3 Zrotation Xrotation Yrotation
                  End Site
                  {
                    OFFSET -2.33842 -0.294052 0.168128
                  }
                }
              }
              JOINT rPinky1
              {
                OFFSET -8.27202 -0.0477905 -0.4584
                CHANNELS 3 Zrotation Xrotation Yrotation
                JOINT rPinky2
                {
                  OFFSET -1.82734 -0.647385 -0.700984
                  CHANNELS 3 Zrotation Xrotation Yrotation
                  End Site
                  {
                    OFFSET -1.69225 -0.51767 -0.607171
                  }
                }
              }
            }
          }
        }
      }
      JOINT lCollar
      {
        OFFSET 2.68224 19.2634 -4.8768
        CHANNELS 3 Zrotation Xrotation Yrotation
        JOINT lShldr
        {
          OFFSET 8.77824 -1.95073 1.46304
          CHANNELS 3 Zrotation Xrotation Yrotation
          JOINT lForeArm
          {
            OFFSET 28.1742 -1.7115 0.48768
            CHANNELS 3 Zrotation Xrotation Yrotation
            JOINT lHand
            {
              OFFSET 22.5879 0.773209 7.07136
              CHANNELS 3 Zrotation Xrotation Yrotation
              JOINT lThumb1
              {
                OFFSET 1.2192 -0.487915 3.41376
                CHANNELS 3 Zrotation Xrotation Yrotation
                JOINT lThumb2
                {
                  OFFSET 3.37035 -0.52449 3.41376
                  CHANNELS 3 Zrotation Xrotation Yrotation
                  End Site
                  {
                    OFFSET 1.78271 -1.18214 1.43049
                  }
                }
              }
              JOINT lIndex1
              {
                OFFSET 7.75947 0.938293 5.60832
                CHANNELS 3 Zrotation Xrotation Yrotation
                JOINT lIndex2
                {
                  OFFSET 2.54057 -0.884171 1.56538
                  CHANNELS 3 Zrotation Xrotation Yrotation
                  End Site
                  {
                    OFFSET 1.62519 -0.234802 1.16502
                  }
                }
              }
              JOINT lMid1
              {
                OFFSET 8.24714 1.18213 3.41376
                CHANNELS 3 Zrotation Xrotation Yrotation
                JOINT lMid2
                {
                  OFFSET 3.10165 -0.590103 1.0647
                  CHANNELS 3 Zrotation Xrotation Yrotation
                  End Site
                  {
                    OFFSET 2.48547 -0.328903 0.83742
                  }
                }
              }
              JOINT lRing1
              {
                OFFSET 8.82822 0.546677 1.51678
                CHANNELS 3 Zrotation Xrotation Yrotation
                JOINT lRing2
                {
                  OFFSET 2.60934 -0.819778 -0.0198488
                  CHANNELS 3 Zrotation Xrotation Yrotation
                  End Site
                  {
                    OFFSET 2.33842 -0.294052 0.168128
                  }
                }
              }
              JOINT lPinky1
              {
                OFFSET 8.27202 -0.0477905 -0.4584
                CHANNELS 3 Zrotation Xrotation Yrotation
                JOINT lPinky2
                {
                  OFFSET 1.82734 -0.647385 -0.700984
                  CHANNELS 3 Zrotation Xrotation Yrotation
                  End Site
                  {
                    OFFSET 1.69225 -0.51767 -0.607171
                  }
                }
              }
            }
          }
        }
      }
    }
  }
  JOINT rButtock
  {
    OFFSET -8.77824 4.35084 1.2192
    CHANNELS 3 Zrotation Xrotation Yrotation
    JOINT rThigh
    {
      OFFSET 0 -1.70687 -2.19456
      CHANNELS 3 Zrotation Xrotation Yrotation
      JOINT rShin
      {
        OFFSET 0 -36.8199 0.73152
        CHANNELS 3 Zrotation Xrotation Yrotation
        JOINT rFoot
        {
          OFFSET 0.73152 -45.1104 -5.12064
          CHANNELS 3 Zrotation Xrotation Yrotation
          End Site
          {
            OFFSET -1.1221 -3.69964 12.103
          }
        }
      }
    }
  }
  JOINT lButtock
  {
    OFFSET 8.77824 4.35084 1.2192
    CHANNELS 3 Zrotation Xrotation Yrotation
    JOINT lThigh
    {
      OFFSET 0 -1.70687 -2.19456
      CHANNELS 3 Zrotation Xrotation Yrotation
      JOINT lShin
      {
        OFFSET 0 -36.8199 0.73152
        CHANNELS 3 Zrotation Xrotation Yrotation
        JOINT lFoot
        {
          OFFSET -0.73152 -45.1104 -5.12064
          CHANNELS 3 Zrotation Xrotation Yrotation
          End Site
          {
            OFFSET 1.1221 -3.69964 12.103
          }
        }
      }
    }
  }
}
MOTION
Frames:	4
Frame Time:	0.03333
-0.5580177040101677 -0.15465824121284658 -1.3366876573653592 -89.536376953125 20.92131233215332 -117.0196762084961 -49.4600830078125 41.86861801147461 -132.38165283203125 52.41135787963867 60.266624450683594 83.2827377319336 -137.56553649902344 31.54969024658203 -114.1396713256836 115.58128356933594 -14.660762786865234 45.9547004699707 0.7652700543403625 -18.09734344482422 -110.5532455444336 41.40861892700195 12.570328712463379 148.4225616455078 -21.342945098876953 -17.667612075805664 27.59173583984375 58.74737548828125 4.891915321350098 -47.17825698852539 39.97780227661133 -56.734657287597656 113.94822692871094 -44.774696350097656 6.685782432556152 -36.98583984375 124.90071105957031 -19.755231857299805 -62.74094772338867 -22.346086502075195 23.48723793029785 -122.27982330322266 106.48058319091797 39.14064407348633 46.97611999511719 51.1365966796875 -35.0745964050293 46.32836151123047 61.682281494140625 40.64908218383789 124.534423828125 -77.44414520263672 15.036845207214355 88.05794525146484 32.400047302246094 74.688720703125 79.37126922607422 2.5841314792633057 -67.27794647216797 -153.46522521972656 24.547748565673828 -0.4152761399745941 -13.079389572143555 -86.82784271240234 -30.169876098632812 -98.37555694580078 -19.7254638671875 30.44655418395996 32.97747802734375 -60.90351104736328 34.92502212524414 -119.78660583496094 76.06263732910156 20.957582473754883 -42.615482330322266 32.53451919555664 48.87754821777344 -31.318899154663086 -19.39198112487793 -20.14792823791504 -41.72944641113281 176.53567504882812 -43.94535446166992 -170.41934204101562 -127.67316436767578 54.34858322143555 86.2350082397461 0.2797897458076477 7.485506534576416 -38.49431610107422 -32.11285400390625 23.35093879699707 86.79176330566406 63.38545227050781 16.648860931396484 -73.87962341308594 -178.67953491210938 5.206455230712891 57.254127502441406 -51.8514518737793 10.368766784667969 -170.29193115234375 144.4619598388672 -38.0715217590332 -92.5700912475586 -74.96670532226562 18.89716911315918 -23.08873748779297 149.0915985107422 -64.0523452758789 136.20059204101562 5.881336688995361 -43.314308166503906 -29.77509880065918 -36.42585754394531 32.5522575378418 37.04017639160156 -26.231369018554688 47.3603630065918 -123.54872131347656 -177.0146026611328 -46.56438446044922 -62.187923431396484 -31.293563842773438 21.060514450073242 36.803504943847656 -9.069255828857422 -8.653129577636719 39.5512580871582 69.07142639160156 51.7332763671875 -45.1452751159668
-1.523325778087131 0.1571605450483042 -3.3514171582611696 -102.31954956054688 -0.5193793773651123 -95.4964828491211 -62.350929260253906 -4.112195014953613 -143.61837768554688 53.94850158691406 42.85713577270508 73.77581024169922 -152.63189697265625 -21.44511604309082 -155.6575927734375 95.35189819335938 -36.769287109375 38.090641021728516 1.1509956121444702 -10.839077949523926 -74.6318130493164 40.88311767578125 -0.45623070001602173 -8.116718292236328 -17.403099060058594 -12.750442504882812 18.5333251953125 64.38043975830078 20.13587188720703 -28.763410568237305 8.360485076904297 -42.93700408935547 83.01595306396484 -46.101436614990234 -34.56373977661133 -54.66621398925781 103.87962341308594 19.199522018432617 -50.18185043334961 -20.25916290283203 -18.764333724975586 -59.7907829284668 75.25481414794922 6.580886363983154 55.937416076660156 37.956016540527344 -26.100486755371094 27.561260223388672 81.03006744384766 21.541091918945312 131.46934509277344 -63.74663162231445 21.892541885375977 58.28949737548828 17.326208114624023 57.67621994018555 62.38626480102539 73.86703491210938 -28.30727767944336 -50.89630126953125 17.124469757080078 0.016958292573690414 -9.788980484008789 -85.49702453613281 -55.98434829711914 -90.65907287597656 -13.075581550598145 23.241741180419922 23.154102325439453 -65.39067840576172 34.40351104736328 -94.85352325439453 57.764503479003906 9.614566802978516 -35.34058380126953 16.451765060424805 31.273910522460938 -9.108491897583008 -14.101580619812012 -18.22364616394043 -33.01766586303711 143.27200317382812 -87.1751937866211 150.2838134765625 -18.40257453918457 38.78583526611328 -9.030138969421387 -2.436251640319824 11.458127975463867 -29.416460037231445 -21.841938018798828 8.605816841125488 56.38920593261719 33.721073150634766 11.206968307495117 -28.749723434448242 -167.73428344726562 36.497230529785156 89.00981903076172 -117.7436752319336 1.4211382865905762 -174.72332763671875 152.07432556152344 -22.281429290771484 -108.71916961669922 -57.15827560424805 8.712407112121582 -22.613828659057617 28.603872299194336 -72.80509948730469 17.42939567565918 -8.775735855102539 -40.109352111816406 -28.120328903198242 -33.19070816040039 44.657352447509766 35.66565704345703 -27.209789276123047 12.788045883178711 -79.73482513427734 -149.46221923828125 -75.56544494628906 -62.874881744384766 -19.24784278869629 -7.26970911026001 12.735367774963379 -3.4304747581481934 22.810924530029297 30.882776260375977 43.25236511230469 48.74537658691406 -18.991069793701172
-4.334324708838552 1.7904557571867992 -8.862123917427823 -28.067564010620117 -21.56029510498047 2.2489757537841797 -13.059761047363281 0.5372554063796997 -5.002615451812744 22.413705825805664 -4.28223180770874 24.982223510742188 -9.538167953491211 10.598617553710938 2.7595958709716797 22.823083877563477 -39.3687629699707 -0.21185922622680664 -2.0634310245513916 -4.017532825469971 -20.77467155456543 5.910154819488525 4.51595401763916 -3.6794512271881104 -7.217397689819336 -0.5573170781135559 6.173129558563232 54.22160720825195 33.68138885498047 1.0482412576675415 -13.700952529907227 -32.01839828491211 74.62039947509766 -14.863812446594238 -29.367910385131836 -11.683855056762695 13.411800384521484 15.04964828491211 -0.08170583844184875 -6.458266258239746 -10.5811185836792 -8.228578567504883 14.451050758361816 -14.333194732666016 9.8699312210083 22.813329696655273 -6.000007152557373 4.641509056091309 12.543993949890137 -3.0958149433135986 -3.078528881072998 -18.834949493408203 11.813157081604004 10.38945484161377 4.671156406402588 14.128437995910645 14.664533615112305 12.396342277526855 7.947059154510498 -0.4578675925731659 4.123110771179199 -1.0691949129104614 -4.317782402038574 -2.5955872535705566 -20.8973445892334 -5.663222789764404 -7.344233989715576 11.881845474243164 11.987007141113281 -66.41129302978516 35.51978302001953 -43.3277473449707 36.00429153442383 -19.28889274597168 -46.434478759765625 7.4626898765563965 -3.8119711875915527 0.807570219039917 -7.918469429016113 -6.6133575439453125 -14.135687828063965 -2.119143486022949 -5.564115524291992 3.430981159210205 -6.753293037414551 3.7205090522766113 -5.29857063293457 -6.461864948272705 6.5341691970825195 -9.062766075134277 -9.716598510742188 -4.913607120513916 14.85961627960205 1.5105812549591064 1.470144271850586 -8.4557466506958 -1.1573328971862793 1.0546045303344727 -15.10190486907959 -18.714805603027344 -6.035316467285156 2.9945640563964844 12.463445663452148 18.390302658081055 16.70382308959961 -21.074966430664062 1.931883692741394 -8.002602577209473 0.8073228597640991 -15.481897354125977 -5.079606056213379 -21.405506134033203 -37.125518798828125 -24.824907302856445 -15.320849418640137 57.11015319824219 17.294618606567383 -8.875033378601074 -18.096208572387695 -26.203659057617188 -7.393786430358887 -19.544200897216797 13.713926315307617 4.165236949920654 -31.701778411865234 6.123163223266602 -3.4346537590026855 52.965599060058594 13.795964241027832 13.983355522155762 10.156266212463379 11.827811241149902
-11.345717516871272 5.294653361567164 -22.28904639162229 -7.901797294616699 -14.889921188354492 6.756100177764893 -3.220062732696533 12.525607109069824 0.7785139083862305 8.983806610107422 -10.851202964782715 6.342270851135254 -7.514156341552734 16.2810115814209 1.0625768899917603 8.542235374450684 -30.597867965698242 -2.8904407024383545 -2.842064380645752 -2.215303421020508 -9.408966064453125 3.2278993129730225 5.478318691253662 -1.2426708936691284 -3.079798698425293 2.22672700881958 1.745732069015503 48.864349365234375 36.8765983581543 10.776209831237793 -19.4523983001709 -29.646331787109375 73.3912353515625 -5.741661071777344 -17.115373611450195 -1.6360896825790405 4.64531135559082 6.223709583282471 -0.7815350890159607 -4.307973384857178 -1.932529091835022 -1.9365125894546509 4.3216376304626465 -5.339951515197754 4.181332111358643 15.443110466003418 1.140876054763794 -1.2115801572799683 3.751861572265625 3.259669065475464 -1.524704933166504 -4.106879234313965 6.664216041564941 3.9137043952941895 2.4035730361938477 5.6479668617248535 5.035821914672852 9.714871406555176 2.1839396953582764 1.2915202379226685 -0.18199345469474792 -1.6423938274383545 -1.6892203092575073 3.8132543563842773 -3.439363479614258 -3.7724995613098145 -4.696870803833008 5.861168384552002 6.4262375831604 -57.25101089477539 36.22814178466797 -34.767215728759766 26.104938507080078 -22.35184097290039 -60.26859664916992 4.4606032371521 -12.348905563354492 1.6043756008148193 -4.824943542480469 -0.6424773335456848 -5.829558849334717 -2.850559711456299 -1.2863291501998901 1.769095778465271 -4.684875965118408 0.709793746471405 -2.0836079120635986 -8.235099792480469 5.720741271972656 -0.21237099170684814 -4.907660007476807 -4.250260353088379 3.9504854679107666 -3.443098545074463 -1.3479235172271729 -5.109084606170654 1.0103670358657837 -0.6344156861305237 -5.727756023406982 -12.89949893951416 -5.025815010070801 2.9998695850372314 6.050449371337891 3.203699827194214 6.138321876525879 -6.68807315826416 0.49975770711898804 -3.102487087249756 -2.0171804428100586 -5.260549068450928 -3.360520362854004 -24.187894821166992 -36.643009185791016 -24.10779571533203 -2.6651012897491455 61.167259216308594 3.868354082107544 -5.057201385498047 -15.550911903381348 -14.989517211914062 -5.2925705909729 -9.479209899902344 3.6849138736724854 19.64640235900879 -37.47718811035156 11.719883918762207 -4.4431891441345215 60.18756103515625 7.9785943031311035 7.7867655754089355 -5.973711013793945 14.369154930114746
